<svg xmlns="http://www.w3.org/2000/svg" viewBox="0 0 109 109"><defs><style>.cls-1{opacity:0.9;}.cls-2{fill:#3fa9f5;}.cls-3,.cls-4,.cls-6{fill:#fff;}.cls-4{font-size:36px;}.cls-4,.cls-6{font-family:AmericanTypewriter-Semibold, American Typewriter;font-weight:700;}.cls-5{letter-spacing:-0.03em;}.cls-6{font-size:12px;}.cls-7{letter-spacing:-0.01em;}.cls-8{letter-spacing:-0.02em;}.cls-9{letter-spacing:-0.1em;}.cls-10{letter-spacing:-0.01em;}</style></defs><title>Asset 40dyt</title><g id="Layer_2" data-name="Layer 2"><g id="Layer_1-2" data-name="Layer 1"><g class="cls-1"><rect class="cls-2" x="3.5" y="3.5" width="102" height="102" rx="8.5" ry="8.5"/><path class="cls-3" d="M97,7a5,5,0,0,1,5,5V97a5,5,0,0,1-5,5H12a5,5,0,0,1-5-5V12a5,5,0,0,1,5-5H97m0-7H12A12,12,0,0,0,0,12V97a12,12,0,0,0,12,12H97a12,12,0,0,0,12-12V12A12,12,0,0,0,97,0Z"/></g><text class="cls-4" transform="translate(17.17 52.5)"><tspan class="cls-5">D</tspan><tspan x="25.16" y="0">YT</tspan></text><text class="cls-6" transform="translate(11.24 75.5)">Do<tspan class="cls-7" x="15.29" y="0">c</tspan><tspan class="cls-8" x="21.25" y="0">k</tspan><tspan x="28.49" y="0">erize </tspan><tspan class="cls-9" x="60.11" y="0">Y</tspan><tspan x="67.64" y="0">our</tspan><tspan class="cls-10" x="28.66" y="14.4">T</tspan><tspan x="36.14" y="14.4">ools</tspan></text></g></g></svg>