<svg xmlns="http://www.w3.org/2000/svg" viewBox="0 0 109 109"><defs><style>.cls-1{fill:#7ac943;}.cls-2,.cls-3,.cls-4{fill:#fff;}.cls-3{font-size:36px;}.cls-3,.cls-4{font-family:AmericanTypewriter-Semibold, American Typewriter;font-weight:700;}.cls-4{font-size:12px;}.cls-5{letter-spacing:0.03em;}</style></defs><title>Asset 42hs</title><g id="Layer_2" data-name="Layer 2"><g id="Layer_1-2" data-name="Layer 1"><rect class="cls-1" x="3.5" y="3.5" width="102" height="102" rx="8.5" ry="8.5"/><path class="cls-2" d="M97,7a5,5,0,0,1,5,5V97a5,5,0,0,1-5,5H12a5,5,0,0,1-5-5V12a5,5,0,0,1,5-5H97m0-7H12A12,12,0,0,0,0,12V97a12,12,0,0,0,12,12H97a12,12,0,0,0,12-12V12A12,12,0,0,0,97,0Z"/><text class="cls-3" transform="translate(30.17 52.5)">HS</text><text class="cls-4" transform="translate(14.11 76.5)">Host Spoo<tspan class="cls-5" x="57.38" y="0">f</tspan><tspan x="61.87" y="0">ing</tspan></text></g></g></svg>