<svg xmlns="http://www.w3.org/2000/svg" xmlns:xlink="http://www.w3.org/1999/xlink" viewBox="0 0 532 417"><defs><linearGradient id="linear-gradient" x1="212.01" y1="411.01" x2="114.99" y2="313.99" gradientUnits="userSpaceOnUse"><stop offset="0.45" stop-color="#7ac943"/><stop offset="0.55" stop-color="#3fa9f5"/></linearGradient><linearGradient id="linear-gradient-2" x1="525.01" y1="5.99" x2="427.99" y2="103.01" gradientUnits="userSpaceOnUse"><stop offset="0.45" stop-color="#fbb03b"/><stop offset="0.55" stop-color="#7ac943"/></linearGradient><linearGradient id="linear-gradient-3" x1="526.01" y1="108.99" x2="428.99" y2="206.01" xlink:href="#linear-gradient-2"/><linearGradient id="linear-gradient-4" x1="318.01" y1="307.01" x2="220.99" y2="209.99" xlink:href="#linear-gradient"/></defs><title>Asset 36periodictable</title><g id="Layer_2" data-name="Layer 2"><g id="Layer_1-2" data-name="Layer 1"><rect x="3" y="39" width="238" height="64" rx="12" ry="12" style="fill:#fff"/><rect x="112.5" y="311.5" width="102" height="102" rx="8.5" ry="8.5" style="fill:url(#linear-gradient)"/><path d="M206,315a5,5,0,0,1,5,5v85a5,5,0,0,1-5,5H121a5,5,0,0,1-5-5V320a5,5,0,0,1,5-5h85m0-7H121a12,12,0,0,0-12,12v85a12,12,0,0,0,12,12h85a12,12,0,0,0,12-12V320a12,12,0,0,0-12-12Z" style="fill:#fff"/><text transform="translate(134.17 361.5)" style="font-size:36px;fill:#fff;font-family:AmericanTypewriter-Semibold, American Typewriter;font-weight:700">MS</text><text transform="translate(121 385.5)" style="font-size:12px;fill:#fff;font-family:AmericanTypewriter-Semibold, American Typewriter;font-weight:700">Mount Sources</text><g style="opacity:0.9"><rect x="3.5" y="311.5" width="102" height="102" rx="8.5" ry="8.5" style="fill:#3fa9f5"/><path d="M97,315a5,5,0,0,1,5,5v85a5,5,0,0,1-5,5H12a5,5,0,0,1-5-5V320a5,5,0,0,1,5-5H97m0-7H12A12,12,0,0,0,0,320v85a12,12,0,0,0,12,12H97a12,12,0,0,0,12-12V320a12,12,0,0,0-12-12Z" style="fill:#fff"/></g><text transform="translate(25.17 361.5)" style="font-size:36px;fill:#fff;font-family:AmericanTypewriter-Semibold, American Typewriter;font-weight:700">OBI</text><text transform="translate(26.09 386.5)" style="font-size:12px;fill:#fff;font-family:AmericanTypewriter-Semibold, American Typewriter;font-weight:700">ONBUILD <tspan x="8.81" y="14.4">ima</tspan><tspan x="30.43" y="14.4" style="letter-spacing:-0.017985026041666668em">g</tspan><tspan x="36.77" y="14.4">es</tspan></text><path d="M131.58,105.5c-6.43,0-6.44,10,0,10S138,105.5,131.58,105.5Z" style="fill:#fff"/><g style="opacity:0.9"><rect x="3.5" y="207.5" width="102" height="102" rx="8.5" ry="8.5" style="fill:#3fa9f5"/><path d="M97,211a5,5,0,0,1,5,5v85a5,5,0,0,1-5,5H12a5,5,0,0,1-5-5V216a5,5,0,0,1,5-5H97m0-7H12A12,12,0,0,0,0,216v85a12,12,0,0,0,12,12H97a12,12,0,0,0,12-12V216a12,12,0,0,0-12-12Z" style="fill:#fff"/></g><g style="opacity:0.9"><rect x="3.5" y="106.5" width="102" height="102" rx="8.5" ry="8.5" style="fill:#3fa9f5"/><path d="M97,110a5,5,0,0,1,5,5v85a5,5,0,0,1-5,5H12a5,5,0,0,1-5-5V115a5,5,0,0,1,5-5H97m0-7H12A12,12,0,0,0,0,115v85a12,12,0,0,0,12,12H97a12,12,0,0,0,12-12V115a12,12,0,0,0-12-12Z" style="fill:#fff"/></g><g style="opacity:0.9"><rect x="109.5" y="207.5" width="102" height="102" rx="8.5" ry="8.5" style="fill:#3fa9f5"/><path d="M203,211a5,5,0,0,1,5,5v85a5,5,0,0,1-5,5H118a5,5,0,0,1-5-5V216a5,5,0,0,1,5-5h85m0-7H118a12,12,0,0,0-12,12v85a12,12,0,0,0,12,12h85a12,12,0,0,0,12-12V216a12,12,0,0,0-12-12Z" style="fill:#fff"/></g><rect x="218.5" y="311.5" width="102" height="102" rx="8.5" ry="8.5" style="fill:#7ac943"/><path d="M312,315a5,5,0,0,1,5,5v85a5,5,0,0,1-5,5H227a5,5,0,0,1-5-5V320a5,5,0,0,1,5-5h85m0-7H227a12,12,0,0,0-12,12v85a12,12,0,0,0,12,12h85a12,12,0,0,0,12-12V320a12,12,0,0,0-12-12Z" style="fill:#fff"/><rect x="322.5" y="311.5" width="102" height="102" rx="8.5" ry="8.5" style="fill:#7ac943"/><path d="M416,315a5,5,0,0,1,5,5v85a5,5,0,0,1-5,5H331a5,5,0,0,1-5-5V320a5,5,0,0,1,5-5h85m0-7H331a12,12,0,0,0-12,12v85a12,12,0,0,0,12,12h85a12,12,0,0,0,12-12V320a12,12,0,0,0-12-12Z" style="fill:#fff"/><rect x="322.5" y="207.5" width="102" height="102" rx="8.5" ry="8.5" style="fill:#7ac943"/><path d="M416,211a5,5,0,0,1,5,5v85a5,5,0,0,1-5,5H331a5,5,0,0,1-5-5V216a5,5,0,0,1,5-5h85m0-7H331a12,12,0,0,0-12,12v85a12,12,0,0,0,12,12h85a12,12,0,0,0,12-12V216a12,12,0,0,0-12-12Z" style="fill:#fff"/><rect x="424.5" y="311.5" width="102" height="102" rx="8.5" ry="8.5" style="fill:#7ac943"/><path d="M518,315a5,5,0,0,1,5,5v85a5,5,0,0,1-5,5H433a5,5,0,0,1-5-5V320a5,5,0,0,1,5-5h85m0-7H433a12,12,0,0,0-12,12v85a12,12,0,0,0,12,12h85a12,12,0,0,0,12-12V320a12,12,0,0,0-12-12Z" style="fill:#fff"/><rect x="425.5" y="3.5" width="102" height="102" rx="8.5" ry="8.5" style="fill:url(#linear-gradient-2)"/><path d="M519,7a5,5,0,0,1,5,5V97a5,5,0,0,1-5,5H434a5,5,0,0,1-5-5V12a5,5,0,0,1,5-5h85m0-7H434a12,12,0,0,0-12,12V97a12,12,0,0,0,12,12h85a12,12,0,0,0,12-12V12A12,12,0,0,0,519,0Z" style="fill:#fff"/><rect x="426.5" y="106.5" width="102" height="102" rx="8.5" ry="8.5" style="fill:url(#linear-gradient-3)"/><path d="M520,110a5,5,0,0,1,5,5v85a5,5,0,0,1-5,5H435a5,5,0,0,1-5-5V115a5,5,0,0,1,5-5h85m0-7H435a12,12,0,0,0-12,12v85a12,12,0,0,0,12,12h85a12,12,0,0,0,12-12V115a12,12,0,0,0-12-12Z" style="fill:#fff"/><text transform="translate(124.17 256.5)" style="font-size:36px;fill:#fff;font-family:AmericanTypewriter-Semibold, American Typewriter;font-weight:700">DFD</text><text transform="translate(122.24 279.5)" style="font-size:12px;fill:#fff;font-family:AmericanTypewriter-Semibold, American Typewriter;font-weight:700">Dependencies<tspan x="-5.24" y="14.4" style="letter-spacing:0.012980143229166666em">F</tspan><tspan x="2.34" y="14.4">irst Do</tspan><tspan x="40.94" y="14.4" style="letter-spacing:-0.012980143229166666em">c</tspan><tspan x="46.91" y="14.4" style="letter-spacing:-0.0159912109375em">k</tspan><tspan x="54.14" y="14.4">e</tspan><tspan x="60.48" y="14.4" style="letter-spacing:0.010986328125em">r</tspan><tspan x="66.5" y="14.4" style="letter-spacing:0.027994791666666668em">f</tspan><tspan x="70.99" y="14.4">ile</tspan></text><text transform="translate(17.17 256.5)" style="font-size:36px;fill:#fff;font-family:AmericanTypewriter-Semibold, American Typewriter;font-weight:700"><tspan style="letter-spacing:-0.028998480902777776em">D</tspan><tspan x="25.16" y="0">YT</tspan></text><text transform="translate(11.24 279.5)" style="font-size:12px;fill:#fff;font-family:AmericanTypewriter-Semibold, American Typewriter;font-weight:700">Do<tspan x="15.29" y="0" style="letter-spacing:-0.013020833333333334em">c</tspan><tspan x="21.25" y="0" style="letter-spacing:-0.0159912109375em">k</tspan><tspan x="28.49" y="0">erize </tspan><tspan x="60.11" y="0" style="letter-spacing:-0.0999755859375em">Y</tspan><tspan x="67.64" y="0">our</tspan><tspan x="28.66" y="14.4" style="letter-spacing:-0.013997395833333334em">T</tspan><tspan x="36.14" y="14.4">ools</tspan></text><text transform="translate(31.17 157.5)" style="font-size:36px;fill:#fff;font-family:AmericanTypewriter-Semibold, American Typewriter;font-weight:700">CS</text><text transform="translate(39.7 179.5)" style="font-size:12px;fill:#fff;font-family:AmericanTypewriter-Semibold, American Typewriter;font-weight:700">Copy<tspan x="-8.53" y="14.4">Sources</tspan></text><path d="M15,101.5a8.5,8.5,0,0,1,0-17h85a8.5,8.5,0,0,1,0,17Z" style="fill:#fbb03b"/><path d="M100,88a5,5,0,0,1,0,10H15a5,5,0,0,1,0-10h85m0-7H15a12,12,0,0,0,0,24h85a12,12,0,0,0,0-24Z" style="fill:#fff"/><path d="M15,80.5a8.5,8.5,0,0,1,0-17h85a8.5,8.5,0,0,1,0,17Z" style="fill:#7ac943"/><path d="M100,67a5,5,0,0,1,0,10H15a5,5,0,0,1,0-10h85m0-7H15a12,12,0,0,0,0,24h85a12,12,0,0,0,0-24Z" style="fill:#fff"/><path d="M15,59.5a8.5,8.5,0,0,1,0-17h85a8.5,8.5,0,0,1,0,17Z" style="fill:#3fa9f5"/><path d="M100,46a5,5,0,0,1,0,10H15a5,5,0,0,1,0-10h85m0-7H15a12,12,0,0,0,0,24h85a12,12,0,0,0,0-24Z" style="fill:#fff"/><text transform="translate(112.17 54.33)" style="font-size:12px;font-family:AmericanTypewriter-Light, American Typewriter">d<tspan x="6.98" y="0" style="letter-spacing:-0.024983723958333332em">e</tspan><tspan x="13.02" y="0" style="letter-spacing:-0.029012044270833332em">v</tspan><tspan x="19.45" y="0">elopment patterns</tspan></text><text transform="translate(112.17 75.33)" style="font-size:12px;font-family:AmericanTypewriter-Light, American Typewriter">runtime patterns</text><text transform="translate(111.17 97.33)" style="font-size:12px;font-family:AmericanTypewriter-Light, American Typewriter">distribution patterns</text><rect x="322.5" y="106.5" width="102" height="102" rx="8.5" ry="8.5" style="fill:#7ac943"/><path d="M416,110a5,5,0,0,1,5,5v85a5,5,0,0,1-5,5H331a5,5,0,0,1-5-5V115a5,5,0,0,1,5-5h85m0-7H331a12,12,0,0,0-12,12v85a12,12,0,0,0,12,12h85a12,12,0,0,0,12-12V115a12,12,0,0,0-12-12Z" style="fill:#fff"/><rect x="424.5" y="208.5" width="102" height="102" rx="8.5" ry="8.5" style="fill:#7ac943"/><path d="M518,212a5,5,0,0,1,5,5v85a5,5,0,0,1-5,5H433a5,5,0,0,1-5-5V217a5,5,0,0,1,5-5h85m0-7H433a12,12,0,0,0-12,12v85a12,12,0,0,0,12,12h85a12,12,0,0,0,12-12V217a12,12,0,0,0-12-12Z" style="fill:#fff"/><rect x="218.5" y="207.5" width="102" height="102" rx="8.5" ry="8.5" style="fill:url(#linear-gradient-4)"/><path d="M312,211a5,5,0,0,1,5,5v85a5,5,0,0,1-5,5H227a5,5,0,0,1-5-5V216a5,5,0,0,1,5-5h85m0-7H227a12,12,0,0,0-12,12v85a12,12,0,0,0,12,12h85a12,12,0,0,0,12-12V216a12,12,0,0,0-12-12Z" style="fill:#fff"/><text transform="translate(232.17 256.5)" style="font-size:36px;fill:#fff;font-family:AmericanTypewriter-Semibold, American Typewriter;font-weight:700">S2I</text><text transform="translate(349.17 256.5)" style="font-size:36px;fill:#fff;font-family:AmericanTypewriter-Semibold, American Typewriter;font-weight:700">HS</text><text transform="translate(452.17 256.5)" style="font-size:36px;fill:#fff;font-family:AmericanTypewriter-Semibold, American Typewriter;font-weight:700"><tspan style="letter-spacing:-0.027994791666666668em">A</tspan><tspan x="25.85" y="0">C</tspan></text><text transform="translate(228.17 361.5)" style="font-size:36px;fill:#fff;font-family:AmericanTypewriter-Semibold, American Typewriter;font-weight:700">DSM</text><text transform="translate(335.17 361.5)" style="font-size:36px;fill:#fff;font-family:AmericanTypewriter-Semibold, American Typewriter;font-weight:700">ECC</text><text transform="translate(439.17 361.5)" style="font-size:36px;fill:#fff;font-family:AmericanTypewriter-Semibold, American Typewriter;font-weight:700">EFE</text><text transform="translate(349.17 160.5)" style="font-size:36px;fill:#fff;font-family:AmericanTypewriter-Semibold, American Typewriter;font-weight:700">SC</text><text transform="translate(439.17 160.5)" style="font-size:36px;fill:#fff;font-family:AmericanTypewriter-Semibold, American Typewriter;font-weight:700">BFS</text><text transform="translate(452.17 54.5)" style="font-size:36px;fill:#fff;font-family:AmericanTypewriter-Semibold, American Typewriter;font-weight:700">CL</text><text transform="translate(241.61 279.5)" style="font-size:12px;fill:#fff;font-family:AmericanTypewriter-Semibold, American Typewriter;font-weight:700">Source <tspan x="42.76" y="0" style="letter-spacing:-0.013997395833333334em">T</tspan><tspan x="50.23" y="0">o</tspan><tspan x="10.81" y="14.4">Ima</tspan><tspan x="33.3" y="14.4" style="letter-spacing:-0.017985026041666668em">g</tspan><tspan x="39.64" y="14.4">e</tspan></text><text transform="translate(333.11 280.5)" style="font-size:12px;fill:#fff;font-family:AmericanTypewriter-Semibold, American Typewriter;font-weight:700">Host Spoo<tspan x="57.38" y="0" style="letter-spacing:0.028035481770833332em">f</tspan><tspan x="61.87" y="0">ing</tspan></text><text transform="translate(440.08 279.5)" style="font-size:12px;fill:#fff;font-family:AmericanTypewriter-Semibold, American Typewriter;font-weight:700">Ambassador<tspan x="7.42" y="14.4">Container</tspan></text><text transform="translate(228.98 385.5)" style="font-size:12px;fill:#fff;font-family:AmericanTypewriter-Semibold, American Typewriter;font-weight:700">Do<tspan x="15.29" y="0" style="letter-spacing:-0.013020833333333334em">c</tspan><tspan x="21.25" y="0" style="letter-spacing:-0.0159912109375em">k</tspan><tspan x="28.49" y="0">er So</tspan><tspan x="57.7" y="0" style="letter-spacing:-0.013020833333333334em">c</tspan><tspan x="63.66" y="0" style="letter-spacing:-0.0159912109375em">k</tspan><tspan x="70.9" y="0">et</tspan><tspan x="22.12" y="14.4">Mount</tspan></text><text transform="translate(334.56 386.5)" style="font-size:12px;fill:#fff;font-family:AmericanTypewriter-Semibold, American Typewriter;font-weight:700">ENT<tspan x="24.89" y="0" style="letter-spacing:-0.031982421875em">R</tspan><tspan x="33.24" y="0">YPOINT</tspan><tspan x="-3.67" y="14.4">CMD combined</tspan></text><text transform="translate(444.98 385.5)" style="font-size:12px;fill:#fff;font-family:AmericanTypewriter-Semibold, American Typewriter;font-weight:700">E<tspan x="8.08" y="0" style="letter-spacing:-0.024983723958333332em">x</tspan><tspan x="15.42" y="0">ec </tspan><tspan x="30.88" y="0" style="letter-spacing:0.012980143229166666em">F</tspan><tspan x="38.46" y="0">rom</tspan><tspan x="-8.42" y="14.4">ENT</tspan><tspan x="16.47" y="14.4" style="letter-spacing:-0.031982421875em">R</tspan><tspan x="24.82" y="14.4">YPOINT</tspan></text><text transform="translate(350.77 179.5)" style="font-size:12px;fill:#fff;font-family:AmericanTypewriter-Semibold, American Typewriter;font-weight:700">Sidecar <tspan x="-5.27" y="14.4">Container</tspan></text><text transform="translate(445.74 179.5)" style="font-size:12px;fill:#fff;font-family:AmericanTypewriter-Semibold, American Typewriter;font-weight:700">Build <tspan x="33.36" y="0" style="letter-spacing:0.012980143229166666em">F</tspan><tspan x="40.94" y="0">rom</tspan><tspan x="9.95" y="14.4">Scrat</tspan><tspan x="40.96" y="14.4" style="letter-spacing:-0.013020833333333334em">c</tspan><tspan x="46.93" y="14.4">h</tspan></text><text transform="translate(446.55 75.5)" style="font-size:12px;fill:#fff;font-family:AmericanTypewriter-Semibold, American Typewriter;font-weight:700">Containers<tspan x="3.79" y="14.4">Laun</tspan><tspan x="33.28" y="14.4" style="letter-spacing:-0.013020833333333334em">c</tspan><tspan x="39.24" y="14.4">her</tspan></text></g></g></svg>