<svg xmlns="http://www.w3.org/2000/svg" xmlns:xlink="http://www.w3.org/1999/xlink" viewBox="0 0 531 417"><defs><style>.cls-1,.cls-3,.cls-4{fill:#fff;}.cls-2{fill:url(#linear-gradient);}.cls-3{font-size:36px;}.cls-3,.cls-4{font-family:AmericanTypewriter-Semibold, American Typewriter;font-weight:700;}.cls-15,.cls-4{font-size:12px;}.cls-5{opacity:0.9;}.cls-6{fill:#3fa9f5;}.cls-7{fill:#7ac943;}.cls-8{fill:url(#linear-gradient-2);}.cls-9{letter-spacing:-0.03em;}.cls-10{letter-spacing:-0.01em;}.cls-11{letter-spacing:-0.02em;}.cls-12{letter-spacing:-0.1em;}.cls-13{letter-spacing:-0.01em;}.cls-14{fill:#fbb03b;}.cls-15{font-family:AmericanTypewriter-Light, American Typewriter;}.cls-16{letter-spacing:-0.02em;}.cls-17{letter-spacing:-0.03em;}.cls-18{fill:url(#linear-gradient-3);}.cls-19{letter-spacing:-0.02em;}.cls-20{letter-spacing:0.03em;}</style><linearGradient id="linear-gradient" x1="212.01" y1="411.01" x2="114.99" y2="313.99" gradientUnits="userSpaceOnUse"><stop offset="0.45" stop-color="#7ac943"/><stop offset="0.55" stop-color="#3fa9f5"/></linearGradient><linearGradient id="linear-gradient-2" x1="525.01" y1="5.99" x2="427.99" y2="103.01" gradientUnits="userSpaceOnUse"><stop offset="0.45" stop-color="#fbb03b"/><stop offset="0.55" stop-color="#7ac943"/></linearGradient><linearGradient id="linear-gradient-3" x1="318.01" y1="307.01" x2="220.99" y2="209.99" xlink:href="#linear-gradient"/></defs><title>Asset 45periodictable-partial</title><g id="Layer_2" data-name="Layer 2"><g id="Layer_1-2" data-name="Layer 1"><rect class="cls-1" x="3" y="39" width="238" height="64" rx="12" ry="12"/><rect class="cls-2" x="112.5" y="311.5" width="102" height="102" rx="8.5" ry="8.5"/><path class="cls-1" d="M206,315a5,5,0,0,1,5,5v85a5,5,0,0,1-5,5H121a5,5,0,0,1-5-5V320a5,5,0,0,1,5-5h85m0-7H121a12,12,0,0,0-12,12v85a12,12,0,0,0,12,12h85a12,12,0,0,0,12-12V320a12,12,0,0,0-12-12Z"/><text class="cls-3" transform="translate(134.17 361.5)">MS</text><text class="cls-4" transform="translate(121 385.5)">Mount Sources</text><g class="cls-5"><rect class="cls-6" x="3.5" y="207.5" width="102" height="102" rx="8.5" ry="8.5"/><path class="cls-1" d="M97,211a5,5,0,0,1,5,5v85a5,5,0,0,1-5,5H12a5,5,0,0,1-5-5V216a5,5,0,0,1,5-5H97m0-7H12A12,12,0,0,0,0,216v85a12,12,0,0,0,12,12H97a12,12,0,0,0,12-12V216a12,12,0,0,0-12-12Z"/></g><rect class="cls-7" x="322.5" y="207.5" width="102" height="102" rx="8.5" ry="8.5"/><path class="cls-1" d="M416,211a5,5,0,0,1,5,5v85a5,5,0,0,1-5,5H331a5,5,0,0,1-5-5V216a5,5,0,0,1,5-5h85m0-7H331a12,12,0,0,0-12,12v85a12,12,0,0,0,12,12h85a12,12,0,0,0,12-12V216a12,12,0,0,0-12-12Z"/><rect class="cls-8" x="425.5" y="3.5" width="102" height="102" rx="8.5" ry="8.5"/><path class="cls-1" d="M519,7a5,5,0,0,1,5,5V97a5,5,0,0,1-5,5H434a5,5,0,0,1-5-5V12a5,5,0,0,1,5-5h85m0-7H434a12,12,0,0,0-12,12V97a12,12,0,0,0,12,12h85a12,12,0,0,0,12-12V12A12,12,0,0,0,519,0Z"/><text class="cls-3" transform="translate(17.17 256.5)"><tspan class="cls-9">D</tspan><tspan x="25.16" y="0">YT</tspan></text><text class="cls-4" transform="translate(11.24 279.5)">Do<tspan class="cls-10" x="15.29" y="0">c</tspan><tspan class="cls-11" x="21.25" y="0">k</tspan><tspan x="28.49" y="0">erize </tspan><tspan class="cls-12" x="60.11" y="0">Y</tspan><tspan x="67.64" y="0">our</tspan><tspan class="cls-13" x="28.66" y="14.4">T</tspan><tspan x="36.14" y="14.4">ools</tspan></text><path class="cls-14" d="M15,101.5a8.5,8.5,0,0,1,0-17h85a8.5,8.5,0,0,1,0,17Z"/><path class="cls-1" d="M100,88a5,5,0,0,1,0,10H15a5,5,0,0,1,0-10h85m0-7H15a12,12,0,0,0,0,24h85a12,12,0,0,0,0-24Z"/><path class="cls-7" d="M15,80.5a8.5,8.5,0,0,1,0-17h85a8.5,8.5,0,0,1,0,17Z"/><path class="cls-1" d="M100,67a5,5,0,0,1,0,10H15a5,5,0,0,1,0-10h85m0-7H15a12,12,0,0,0,0,24h85a12,12,0,0,0,0-24Z"/><path class="cls-6" d="M15,59.5a8.5,8.5,0,0,1,0-17h85a8.5,8.5,0,0,1,0,17Z"/><path class="cls-1" d="M100,46a5,5,0,0,1,0,10H15a5,5,0,0,1,0-10h85m0-7H15a12,12,0,0,0,0,24h85a12,12,0,0,0,0-24Z"/><text class="cls-15" transform="translate(112.17 54.33)">d<tspan class="cls-16" x="6.98" y="0">e</tspan><tspan class="cls-17" x="13.02" y="0">v</tspan><tspan x="19.45" y="0">elopment patterns</tspan></text><text class="cls-15" transform="translate(112.17 75.33)">runtime patterns</text><text class="cls-15" transform="translate(111.17 97.33)">distribution patterns</text><rect class="cls-7" x="322.5" y="106.5" width="102" height="102" rx="8.5" ry="8.5"/><path class="cls-1" d="M416,110a5,5,0,0,1,5,5v85a5,5,0,0,1-5,5H331a5,5,0,0,1-5-5V115a5,5,0,0,1,5-5h85m0-7H331a12,12,0,0,0-12,12v85a12,12,0,0,0,12,12h85a12,12,0,0,0,12-12V115a12,12,0,0,0-12-12Z"/><rect class="cls-18" x="218.5" y="207.5" width="102" height="102" rx="8.5" ry="8.5"/><path class="cls-1" d="M312,211a5,5,0,0,1,5,5v85a5,5,0,0,1-5,5H227a5,5,0,0,1-5-5V216a5,5,0,0,1,5-5h85m0-7H227a12,12,0,0,0-12,12v85a12,12,0,0,0,12,12h85a12,12,0,0,0,12-12V216a12,12,0,0,0-12-12Z"/><text class="cls-3" transform="translate(232.17 256.5)">S2I</text><text class="cls-3" transform="translate(349.17 256.5)">HS</text><text class="cls-3" transform="translate(349.17 160.5)">SC</text><text class="cls-3" transform="translate(452.17 54.5)">CL</text><text class="cls-4" transform="translate(241.61 279.5)">Source <tspan class="cls-13" x="42.76" y="0">T</tspan><tspan x="50.23" y="0">o</tspan><tspan x="10.81" y="14.4">Ima</tspan><tspan class="cls-19" x="33.3" y="14.4">g</tspan><tspan x="39.64" y="14.4">e</tspan></text><text class="cls-4" transform="translate(333.11 280.5)">Host Spoo<tspan class="cls-20" x="57.38" y="0">f</tspan><tspan x="61.87" y="0">ing</tspan></text><text class="cls-4" transform="translate(350.77 179.5)">Sidecar <tspan x="-5.27" y="14.4">Container</tspan></text><text class="cls-4" transform="translate(446.55 75.5)">Containers<tspan x="3.79" y="14.4">Laun</tspan><tspan class="cls-10" x="33.28" y="14.4">c</tspan><tspan x="39.24" y="14.4">her</tspan></text></g></g></svg>