<svg xmlns="http://www.w3.org/2000/svg" xmlns:xlink="http://www.w3.org/1999/xlink" viewBox="0 0 109 109"><defs><style>.cls-1{fill:url(#linear-gradient);}.cls-2,.cls-3,.cls-4{fill:#fff;}.cls-3{font-size:36px;}.cls-3,.cls-4{font-family:AmericanTypewriter-Semibold, American Typewriter;font-weight:700;}.cls-4{font-size:12px;}.cls-5{letter-spacing:-0.01em;}.cls-6{letter-spacing:-0.02em;}</style><linearGradient id="linear-gradient" x1="103.01" y1="103.01" x2="5.99" y2="5.99" gradientUnits="userSpaceOnUse"><stop offset="0.45" stop-color="#7ac943"/><stop offset="0.55" stop-color="#3fa9f5"/></linearGradient></defs><title>Asset 41s2i</title><g id="Layer_2" data-name="Layer 2"><g id="Layer_1-2" data-name="Layer 1"><rect class="cls-1" x="3.5" y="3.5" width="102" height="102" rx="8.5" ry="8.5"/><path class="cls-2" d="M97,7a5,5,0,0,1,5,5V97a5,5,0,0,1-5,5H12a5,5,0,0,1-5-5V12a5,5,0,0,1,5-5H97m0-7H12A12,12,0,0,0,0,12V97a12,12,0,0,0,12,12H97a12,12,0,0,0,12-12V12A12,12,0,0,0,97,0Z"/><text class="cls-3" transform="translate(17.17 52.5)">S2I</text><text class="cls-4" transform="translate(26.61 75.5)">Source <tspan class="cls-5" x="42.76" y="0">T</tspan><tspan x="50.23" y="0">o</tspan><tspan x="10.81" y="14.4">Ima</tspan><tspan class="cls-6" x="33.3" y="14.4">g</tspan><tspan x="39.64" y="14.4">e</tspan></text></g></g></svg>